<svg width="36" height="44" viewBox="0 0 36 44" fill="none" xmlns="http://www.w3.org/2000/svg">
<path d="M18.434 43.1946C25.3916 43.1055 29.5911 41.5881 32.0566 39.3066C34.3838 37.1466 34.9529 34.5087 35.0434 32.4054H35.0567V30.5424C35.056 29.2467 34.5485 28.0044 33.6458 27.0885C32.743 26.1726 31.519 25.6581 30.2427 25.6581H21.7585V25.65H13.7796V25.6581H5.29538C2.63575 25.6581 0.481445 27.8451 0.481445 30.5451V32.4054H0.494744C0.585171 34.5114 1.15433 37.1493 3.48151 39.3039C5.94699 41.5881 10.1465 43.1055 17.1041 43.1946V43.2H18.434V43.1946Z" fill="url(#paint0_radial_76_878)"/>
<path d="M18.434 43.1946C25.3916 43.1055 29.5911 41.5881 32.0566 39.3066C34.3838 37.1466 34.9529 34.5087 35.0434 32.4054H35.0567V30.5424C35.056 29.2467 34.5485 28.0044 33.6458 27.0885C32.743 26.1726 31.519 25.6581 30.2427 25.6581H21.7585V25.65H13.7796V25.6581H5.29538C2.63575 25.6581 0.481445 27.8451 0.481445 30.5451V32.4054H0.494744C0.585171 34.5114 1.15433 37.1493 3.48151 39.3039C5.94699 41.5881 10.1465 43.1055 17.1041 43.1946V43.2H18.434V43.1946Z" fill="url(#paint1_linear_76_878)"/>
<path d="M19.0991 1.35C19.0991 0.991958 18.959 0.64858 18.7096 0.395406C18.4602 0.142232 18.122 0 17.7693 0C17.4166 0 17.0783 0.142232 16.8289 0.395406C16.5796 0.64858 16.4395 0.991958 16.4395 1.35V4.05H19.0991V1.35Z" fill="url(#paint2_linear_76_878)"/>
<path d="M4.4707 6.75001C4.4707 5.67589 4.89102 4.64575 5.63918 3.88623C6.38735 3.12671 7.40208 2.70001 8.46015 2.70001H27.0776C28.1356 2.70001 29.1504 3.12671 29.8985 3.88623C30.6467 4.64575 31.067 5.67589 31.067 6.75001V17.55C31.067 18.6241 30.6467 19.6543 29.8985 20.4138C29.1504 21.1733 28.1356 21.6 27.0776 21.6H8.46015C7.40208 21.6 6.38735 21.1733 5.63918 20.4138C4.89102 19.6543 4.4707 18.6241 4.4707 17.55V6.75001Z" fill="url(#paint3_radial_76_878)"/>
<path d="M23.0883 9.45001C22.383 9.45001 21.7065 9.73448 21.2077 10.2408C20.7089 10.7472 20.4287 11.4339 20.4287 12.15C20.4287 12.8661 20.7089 13.5529 21.2077 14.0592C21.7065 14.5655 22.383 14.85 23.0883 14.85C23.7937 14.85 24.4702 14.5655 24.969 14.0592C25.4678 13.5529 25.748 12.8661 25.748 12.15C25.748 11.4339 25.4678 10.7472 24.969 10.2408C24.4702 9.73448 23.7937 9.45001 23.0883 9.45001Z" fill="url(#paint4_linear_76_878)"/>
<path d="M9.79004 12.15C9.79004 11.4339 10.0703 10.7472 10.569 10.2408C11.0678 9.73448 11.7443 9.45001 12.4497 9.45001C13.155 9.45001 13.8315 9.73448 14.3303 10.2408C14.8291 10.7472 15.1093 11.4339 15.1093 12.15C15.1093 12.8661 14.8291 13.5529 14.3303 14.0592C13.8315 14.5655 13.155 14.85 12.4497 14.85C11.7443 14.85 11.0678 14.5655 10.569 14.0592C10.0703 13.5529 9.79004 12.8661 9.79004 12.15Z" fill="url(#paint5_linear_76_878)"/>
<defs>
<radialGradient id="paint0_radial_76_878" cx="0" cy="0" r="1" gradientUnits="userSpaceOnUse" gradientTransform="translate(-7.49745 20.25) rotate(30.7814) scale(48.2741 77.447)">
<stop stop-color="#F08AF4"/>
<stop offset="0.535" stop-color="#9C6CFE"/>
<stop offset="1" stop-color="#4E44DB"/>
</radialGradient>
<linearGradient id="paint1_linear_76_878" x1="17.7691" y1="23.5602" x2="25.8138" y2="53.1673" gradientUnits="userSpaceOnUse">
<stop stop-color="#885EDB" stop-opacity="0"/>
<stop offset="1" stop-color="#E362F8"/>
</linearGradient>
<linearGradient id="paint2_linear_76_878" x1="16.3783" y1="-1.69856e-08" x2="19.233" y2="3.27579" gradientUnits="userSpaceOnUse">
<stop stop-color="#8B52F4"/>
<stop offset="1" stop-color="#3D35B1"/>
</linearGradient>
<radialGradient id="paint3_radial_76_878" cx="0" cy="0" r="1" gradientUnits="userSpaceOnUse" gradientTransform="translate(-4.83752 -5.39981) rotate(39.4779) scale(45.4403 87.0672)">
<stop stop-color="#F08AF4"/>
<stop offset="0.535" stop-color="#9C6CFE"/>
<stop offset="1" stop-color="#4E44DB"/>
</radialGradient>
<linearGradient id="paint4_linear_76_878" x1="21.6894" y1="9.65791" x2="25.813" y2="16.6672" gradientUnits="userSpaceOnUse">
<stop stop-color="#FDFDFD"/>
<stop offset="1" stop-color="#F9DCFA"/>
</linearGradient>
<linearGradient id="paint5_linear_76_878" x1="11.0507" y1="9.65791" x2="15.1743" y2="16.6672" gradientUnits="userSpaceOnUse">
<stop stop-color="#FDFDFD"/>
<stop offset="1" stop-color="#F9DCFA"/>
</linearGradient>
</defs>
</svg>
