<svg width="17" height="21" viewBox="0 0 17 21" fill="none" xmlns="http://www.w3.org/2000/svg">
<path d="M12.107 0C12.869 0 13.526 0.45 13.826 1.099L13.885 1.241L15.975 1.937C16.2514 2.02922 16.495 2.19995 16.6759 2.42832C16.8569 2.6567 16.9674 2.93284 16.994 3.223L17 3.36V14.64C16.9998 14.9313 16.9148 15.2163 16.7553 15.4601C16.5959 15.704 16.3688 15.8961 16.102 16.013L15.974 16.063L13.884 16.759C13.7603 17.0972 13.5426 17.393 13.2565 17.6116C12.9704 17.8302 12.6278 17.9625 12.269 17.993L12.107 18H2C1.49542 18.0002 1.00943 17.8096 0.639452 17.4665C0.269471 17.1234 0.0428434 16.6532 0.00500021 16.15L1.00268e-07 16V2C-0.000159579 1.49542 0.190406 1.00943 0.533497 0.639452C0.876588 0.269471 1.34684 0.0428433 1.85 0.00500011L2 0H12.107ZM12 2H2V16H12V2ZM14 3.387V14.613L15 14.279V3.721L14 3.387ZM7 10C7.841 10 8.74 10.137 9.469 10.461C10.163 10.77 11 11.404 11 12.5C11.002 12.7652 10.8985 13.0204 10.7124 13.2093C10.5263 13.3982 10.2727 13.5055 10.0075 13.5075C9.74228 13.5095 9.48714 13.406 9.2982 13.2199C9.10925 13.0338 9.00199 12.7802 9 12.515L8.95 12.464C8.86086 12.3919 8.76186 12.333 8.656 12.289C8.26 12.113 7.66 12 7 12C6.34 12 5.74 12.113 5.344 12.289C5.23849 12.3331 5.13983 12.392 5.051 12.464L5 12.515C4.99901 12.6463 4.97217 12.7762 4.92101 12.8971C4.86984 13.0181 4.79536 13.1277 4.7018 13.2199C4.60825 13.3121 4.49746 13.3849 4.37575 13.4342C4.25405 13.4836 4.12382 13.5085 3.9925 13.5075C3.86118 13.5065 3.73134 13.4797 3.61039 13.4285C3.48944 13.3773 3.37975 13.3029 3.28759 13.2093C3.19543 13.1157 3.1226 13.005 3.07325 12.8833C3.02391 12.7616 2.99902 12.6313 3 12.5C3 11.404 3.837 10.77 4.531 10.461C5.26 10.137 6.16 10 7 10ZM7 5C7.53043 5 8.03914 5.21071 8.41421 5.58579C8.78929 5.96086 9 6.46957 9 7C9 7.53043 8.78929 8.03914 8.41421 8.41421C8.03914 8.78929 7.53043 9 7 9C6.46957 9 5.96086 8.78929 5.58579 8.41421C5.21071 8.03914 5 7.53043 5 7C5 6.46957 5.21071 5.96086 5.58579 5.58579C5.96086 5.21071 6.46957 5 7 5Z" fill="white"/>
</svg>
