<svg width="1728" height="1934" viewBox="0 0 1728 1934" fill="none" xmlns="http://www.w3.org/2000/svg">
<path opacity="0.0144928" d="M1652.23 1634.65C1661.29 1639.45 1672.43 1637.69 1679.55 1630.32L1905.89 1396.24C1910.1 1391.88 1912.42 1386.04 1912.35 1379.97L1906.73 913.909C1906.67 909.142 1905.14 904.511 1902.33 900.656L1662.19 570.549C1657.1 563.559 1648.53 560.011 1639.99 561.363L1359.54 605.782C1351 607.134 1343.94 613.159 1341.27 621.378L1214.88 1009.54C1213.41 1014.07 1213.37 1018.95 1214.79 1023.5L1353.47 1468.49C1355.28 1474.28 1359.29 1479.12 1364.65 1481.96L1652.23 1634.65Z" stroke="url(#paint0_linear_76_668)" stroke-width="4"/>
<path opacity="0.0289855" d="M1601.08 1633.16C1609.86 1638.4 1621.04 1637.23 1628.53 1630.27L1865.45 1410.33C1869.9 1406.2 1872.53 1400.47 1872.78 1394.41L1891.61 932.976C1891.8 928.198 1890.5 923.478 1887.89 919.473L1666.81 580.496C1662.09 573.265 1653.73 569.284 1645.14 570.186L1364.43 599.69C1355.84 600.593 1348.49 606.227 1345.38 614.28L1199.6 991.815C1197.88 996.276 1197.59 1001.16 1198.78 1005.8L1313.13 1453.23C1314.63 1459.11 1318.4 1464.16 1323.61 1467.27L1601.08 1633.16Z" stroke="url(#paint1_linear_76_668)" stroke-width="4"/>
<path opacity="0.0434783" d="M1550.32 1630.12C1558.8 1635.79 1569.99 1635.2 1577.83 1628.67L1824.47 1423.32C1829.14 1419.43 1832.09 1413.85 1832.65 1407.8L1875.43 952.271C1875.88 947.496 1874.82 942.7 1872.41 938.554L1670.66 591.788C1666.32 584.336 1658.19 579.934 1649.58 580.386L1369.39 595.069C1360.78 595.521 1353.15 600.749 1349.61 608.613L1185.21 974.569C1183.25 978.944 1182.7 983.824 1183.65 988.526L1273.8 1437.09C1275 1443.05 1278.51 1448.29 1283.56 1451.67L1550.32 1630.12Z" stroke="url(#paint2_linear_76_668)" stroke-width="4"/>
<path opacity="0.057971" d="M1500.04 1625.56C1508.19 1631.64 1519.37 1631.64 1527.52 1625.56L1783.02 1435.22C1787.9 1431.58 1791.15 1426.15 1792.03 1420.13L1858.19 971.737C1858.89 966.977 1858.09 962.117 1855.88 957.841L1673.67 604.37C1669.72 596.717 1661.83 591.909 1653.22 591.909L1374.34 591.909C1365.73 591.909 1357.84 596.717 1353.9 604.37L1171.68 957.841C1169.48 962.117 1168.67 966.977 1169.37 971.737L1235.53 1420.13C1236.42 1426.15 1239.66 1431.58 1244.54 1435.22L1500.04 1625.56Z" stroke="url(#paint3_linear_76_668)" stroke-width="4"/>
<path opacity="0.0724638" d="M1450.31 1619.53C1458.13 1626 1469.25 1626.58 1477.7 1620.97L1741.16 1445.99C1746.24 1442.62 1749.77 1437.36 1750.98 1431.39L1839.89 991.313C1840.84 986.582 1840.29 981.671 1838.3 977.274L1675.77 618.184C1672.22 610.351 1664.6 605.149 1656.02 604.699L1379.2 590.192C1370.62 589.742 1362.5 594.119 1358.15 601.538L1158.97 941.672C1156.54 945.837 1155.47 950.663 1155.92 955.468L1198.35 1402.42C1198.92 1408.49 1201.89 1414.09 1206.58 1417.97L1450.31 1619.53Z" stroke="url(#paint4_linear_76_668)" stroke-width="4"/>
<path opacity="0.0869565" d="M1401.22 1612.08C1408.67 1618.91 1419.71 1620.07 1428.43 1614.94L1698.95 1455.63C1704.22 1452.53 1708.03 1447.47 1709.55 1441.55L1820.53 1010.94C1821.73 1006.25 1821.43 1001.3 1819.66 996.797L1676.9 633.169C1673.76 625.177 1666.43 619.598 1657.89 618.7L1383.9 589.902C1375.36 589.004 1367.03 592.938 1362.3 600.103L1147.05 926.103C1144.39 930.143 1143.06 934.922 1143.27 939.759L1162.29 1384.03C1162.55 1390.13 1165.22 1395.88 1169.73 1400.01L1401.22 1612.08Z" stroke="url(#paint5_linear_76_668)" stroke-width="4"/>
<path opacity="0.101449" d="M1352.83 1603.24C1359.91 1610.42 1370.83 1612.15 1379.78 1607.51L1656.46 1464.13C1661.89 1461.31 1665.98 1456.45 1667.81 1450.62L1800.1 1030.56C1801.56 1025.93 1801.52 1020.96 1799.97 1016.35L1677.01 649.26C1674.29 641.13 1667.27 635.19 1658.8 633.848L1388.35 591.013C1379.88 589.672 1371.37 593.152 1366.26 600.043L1135.88 911.168C1132.99 915.071 1131.41 919.79 1131.37 924.647L1127.38 1365.02C1127.32 1371.14 1129.71 1377.03 1134 1381.38L1352.83 1603.24Z" stroke="url(#paint6_linear_76_668)" stroke-width="4"/>
<path opacity="0.115942" d="M1305.2 1593.08C1311.89 1600.59 1322.68 1602.88 1331.84 1598.74L1613.74 1471.49C1619.33 1468.96 1623.67 1464.32 1625.82 1458.58L1778.63 1050.12C1780.34 1045.56 1780.55 1040.57 1779.24 1035.88L1676.04 666.391C1673.74 658.145 1667.05 651.861 1658.67 650.08L1392.48 593.5C1384.11 591.72 1375.44 594.738 1369.98 601.335L1125.42 896.903C1122.31 900.658 1120.48 905.302 1120.18 910.166L1093.65 1345.46C1093.28 1351.58 1095.36 1357.59 1099.43 1362.17L1305.2 1593.08Z" stroke="url(#paint7_linear_76_668)" stroke-width="4"/>
<path opacity="0.130435" d="M1258.42 1581.65C1264.7 1589.46 1275.32 1592.3 1284.66 1588.68L1570.87 1477.7C1576.59 1475.48 1581.19 1471.06 1583.64 1465.44L1756.12 1069.56C1758.07 1065.08 1758.55 1060.09 1757.47 1055.32L1673.96 684.492C1672.08 676.152 1665.73 669.542 1657.47 667.329L1396.23 597.33C1387.97 595.118 1379.17 597.668 1373.37 603.951L1115.63 883.341C1112.32 886.935 1110.23 891.491 1109.68 896.35L1061.12 1325.43C1060.43 1331.53 1062.2 1337.65 1066.05 1342.43L1258.42 1581.65Z" stroke="url(#paint8_linear_76_668)" stroke-width="4"/>
<path opacity="0.144928" d="M1212.54 1569C1218.4 1577.09 1228.81 1580.47 1238.31 1577.37L1527.89 1482.76C1533.74 1480.85 1538.57 1476.69 1541.32 1471.19L1732.58 1088.82C1734.78 1084.44 1735.51 1079.46 1734.68 1074.63L1670.7 703.493C1669.25 695.081 1663.26 688.164 1655.14 685.526L1399.52 602.471C1391.41 599.833 1382.49 601.908 1376.38 607.861L1106.47 870.511C1102.96 873.933 1100.63 878.389 1099.82 883.228L1029.81 1304.99C1028.8 1311.05 1030.26 1317.27 1033.87 1322.24L1212.54 1569Z" stroke="url(#paint9_linear_76_668)" stroke-width="4"/>
<path opacity="0.15942" d="M1167.61 1555.2C1173.04 1563.55 1183.22 1567.46 1192.84 1564.88L1484.89 1486.69C1490.83 1485.1 1495.89 1481.19 1498.93 1475.84L1708.03 1107.86C1710.47 1103.58 1711.46 1098.63 1710.87 1093.74L1666.24 723.32C1665.22 714.858 1659.6 707.653 1651.65 704.599L1402.3 608.882C1394.34 605.828 1385.34 607.424 1378.92 613.03L1097.89 858.441C1094.19 861.679 1091.62 866.021 1090.56 870.829L999.721 1284.21C998.4 1290.22 999.544 1296.51 1002.9 1301.68L1167.61 1555.2Z" stroke="url(#paint10_linear_76_668)" stroke-width="4"/>
<path opacity="0.173913" d="M1123.69 1540.31C1128.67 1548.9 1138.61 1553.32 1148.32 1551.27L1441.9 1489.5C1447.94 1488.23 1453.21 1484.59 1456.53 1479.4L1682.5 1126.6C1685.16 1122.44 1686.42 1117.54 1686.07 1112.61L1660.53 743.898C1659.95 735.408 1654.72 727.937 1646.94 724.475L1404.48 616.524C1396.71 613.062 1387.66 614.176 1380.95 619.42L1089.86 847.155C1085.97 850.199 1083.16 854.415 1081.85 859.178L970.874 1263.17C969.241 1269.11 970.064 1275.47 973.158 1280.8L1123.69 1540.31Z" stroke="url(#paint11_linear_76_668)" stroke-width="4"/>
<path opacity="0.188406" d="M1080.84 1524.4C1085.36 1533.2 1095.02 1538.12 1104.8 1536.61L1399 1491.19C1405.11 1490.24 1410.58 1486.89 1414.18 1481.87L1655.99 1145.01C1658.88 1140.98 1660.4 1136.13 1660.3 1131.18L1653.56 765.15C1653.4 756.655 1648.57 748.938 1641 745.081L1406.02 625.35C1398.45 621.493 1389.37 622.123 1382.4 626.99L1082.32 836.677C1078.25 839.516 1075.22 843.592 1073.66 848.298L943.271 1241.93C941.328 1247.79 941.826 1254.19 944.652 1259.68L1080.84 1524.4Z" stroke="url(#paint12_linear_76_668)" stroke-width="4"/>
<path opacity="0.202899" d="M1039.09 1507.54C1043.15 1516.52 1052.5 1521.92 1062.32 1520.95L1356.25 1491.78C1362.4 1491.17 1368.05 1488.1 1371.92 1483.27L1628.55 1163.03C1631.66 1159.15 1633.43 1154.37 1633.59 1149.39L1645.29 787C1645.56 778.522 1641.14 770.581 1633.8 766.34L1406.86 635.315C1399.51 631.073 1390.42 631.22 1383.22 635.696L1075.23 827.024C1071 829.65 1067.74 833.574 1065.93 838.209L916.911 1220.57C914.664 1226.34 914.835 1232.76 917.384 1238.4L1039.09 1507.54Z" stroke="url(#paint13_linear_76_668)" stroke-width="4"/>
<path opacity="0.217391" d="M998.486 1489.79C1002.08 1498.95 1011.1 1504.8 1020.92 1504.36L1313.69 1491.29C1319.88 1491.01 1325.7 1488.25 1329.82 1483.62L1600.19 1180.62C1603.51 1176.9 1605.53 1172.19 1605.94 1167.21L1635.69 809.37C1636.39 800.93 1632.4 792.788 1625.3 788.175L1406.93 646.366C1399.83 641.754 1390.77 641.418 1383.34 645.492L1068.54 818.216C1064.16 820.618 1060.68 824.379 1058.63 828.931L891.791 1199.16C889.245 1204.81 889.087 1211.25 891.352 1217.02L998.486 1489.79Z" stroke="url(#paint14_linear_76_668)" stroke-width="4"/>
<path opacity="0.231884" d="M959.07 1471.24C962.189 1480.53 970.852 1486.83 980.652 1486.92L1271.39 1489.73C1277.59 1489.79 1283.56 1487.34 1287.94 1482.94L1570.94 1197.72C1574.47 1194.17 1576.74 1189.55 1577.41 1184.59L1624.77 832.181C1625.89 823.801 1622.33 815.48 1615.49 810.51L1406.2 658.453C1399.36 653.483 1390.35 652.667 1382.72 656.327L1062.2 810.266C1057.68 812.435 1054 816.021 1051.7 820.477L867.905 1177.77C865.065 1183.29 864.577 1189.72 866.553 1195.61L959.07 1471.24Z" stroke="url(#paint15_linear_76_668)" stroke-width="4"/>
<path opacity="0.246377" d="M920.872 1451.96C923.509 1461.36 931.799 1468.07 941.546 1468.7L1229.39 1487.15C1235.6 1487.55 1241.7 1485.41 1246.31 1481.24L1540.84 1214.3C1544.57 1210.92 1547.09 1206.42 1548.01 1201.47L1612.49 855.352C1614.04 847.055 1610.91 838.577 1604.35 833.266L1404.61 671.519C1398.05 666.207 1389.11 664.915 1381.32 668.152L1056.17 803.185C1051.52 805.115 1047.64 808.514 1045.11 812.862L845.241 1156.46C842.114 1161.83 841.297 1168.25 842.977 1174.24L920.872 1451.96Z" stroke="url(#paint16_linear_76_668)" stroke-width="4"/>
<path opacity="0.26087" d="M883.919 1432.01C886.072 1441.5 893.967 1448.61 903.632 1449.76L1187.76 1483.55C1193.94 1484.29 1200.16 1482.49 1205 1478.55L1509.93 1230.3C1513.85 1227.12 1516.6 1222.73 1517.78 1217.82L1598.86 878.807C1600.82 870.613 1598.14 862.003 1591.88 856.365L1402.12 685.507C1395.86 679.869 1387.02 678.106 1379.07 680.912L1050.39 796.984C1045.63 798.666 1041.56 801.867 1038.8 806.095L823.784 1135.31C820.377 1140.52 819.232 1146.9 820.61 1152.97L883.919 1432.01Z" stroke="url(#paint17_linear_76_668)" stroke-width="4"/>
<path opacity="0.275362" d="M848.235 1411.48C849.902 1421.04 857.384 1428.52 866.938 1430.19L1146.53 1478.98C1152.68 1480.05 1159 1478.58 1164.04 1474.9L1478.24 1245.7C1482.33 1242.71 1485.32 1238.45 1486.75 1233.59L1583.87 902.466C1586.24 894.395 1584.01 885.676 1578.06 879.729L1398.69 700.357C1392.74 694.41 1384.02 692.183 1375.95 694.55L1044.83 791.669C1039.97 793.095 1035.71 796.089 1032.72 800.184L803.515 1114.38C799.837 1119.42 798.366 1125.74 799.439 1131.89L848.235 1411.48Z" stroke="url(#paint18_linear_76_668)" stroke-width="4"/>
<path opacity="0.289855" d="M813.839 1390.45C815.02 1400.04 822.07 1407.87 831.485 1410.05L1105.77 1473.46C1111.86 1474.87 1118.26 1473.74 1123.5 1470.33L1445.8 1260.44C1450.07 1257.66 1453.29 1253.55 1454.97 1248.74L1567.52 926.25C1570.29 918.323 1568.52 909.52 1562.9 903.281L1394.28 716.01C1388.66 709.772 1380.09 707.089 1371.92 709.012L1039.43 787.243C1034.47 788.408 1030.05 791.184 1026.84 795.134L784.413 1093.73C780.472 1098.58 778.677 1104.83 779.441 1111.04L813.839 1390.45Z" stroke="url(#paint19_linear_76_668)" stroke-width="4"/>
<path opacity="0.304348" d="M780.746 1368.98C781.441 1378.59 788.044 1386.74 797.293 1389.42L1065.5 1467.03C1071.52 1468.77 1077.99 1467.98 1083.41 1464.85L1412.67 1274.49C1417.09 1271.94 1420.54 1267.98 1422.46 1263.25L1549.83 950.082C1552.98 942.32 1551.67 933.455 1546.4 926.943L1388.86 732.403C1383.59 725.891 1375.19 722.762 1366.94 724.236L1034.14 783.708C1029.11 784.606 1024.52 787.154 1021.1 790.949L766.451 1073.44C762.258 1078.09 760.143 1084.25 760.595 1090.5L780.746 1368.98Z" stroke="url(#paint20_linear_76_668)" stroke-width="4"/>
<path opacity="0.318841" d="M748.966 1347.17C749.177 1356.76 755.318 1365.21 764.374 1368.37L1025.79 1459.72C1031.71 1461.79 1038.22 1461.35 1043.81 1458.5L1378.88 1287.83C1383.45 1285.5 1387.11 1281.71 1389.28 1277.06L1530.79 973.886C1534.33 966.307 1533.47 957.405 1528.56 950.639L1382.4 749.473C1377.48 742.706 1369.28 739.142 1360.98 740.164L1028.91 781.062C1023.82 781.689 1019.09 784 1015.46 787.628L749.601 1053.55C745.164 1057.99 742.734 1064.05 742.872 1070.32L748.966 1347.17Z" stroke="url(#paint21_linear_76_668)" stroke-width="4"/>
<path opacity="0.333333" d="M718.504 1325.07C718.235 1334.63 723.9 1343.35 732.736 1346.99L986.659 1451.57C992.471 1453.97 999.01 1453.88 1004.76 1451.33L1344.47 1300.41C1349.18 1298.32 1353.05 1294.71 1355.46 1290.16L1510.43 997.585C1514.34 990.208 1513.94 981.294 1509.39 974.293L1374.87 767.154C1370.33 760.153 1362.35 756.165 1354.02 756.734L1023.71 779.302C1018.57 779.653 1013.69 781.719 1009.87 785.169L733.829 1034.14C729.161 1038.35 726.42 1044.28 726.243 1050.57L718.504 1325.07Z" stroke="url(#paint22_linear_76_668)" stroke-width="4"/>
<path opacity="0.347826" d="M689.362 1302.78C688.617 1312.27 693.795 1321.24 702.386 1325.34L948.155 1442.63C953.839 1445.34 960.386 1445.6 966.269 1443.36L1309.5 1312.22C1314.33 1310.37 1318.4 1306.95 1321.05 1302.51L1488.76 1021.11C1493.02 1013.95 1493.09 1005.05 1488.92 997.832L1366.26 785.381C1362.1 778.166 1354.35 773.768 1346.02 773.883L1018.47 778.421C1013.3 778.492 1008.3 780.305 1004.28 783.567L719.101 1015.25C714.213 1019.22 711.167 1025.02 710.674 1031.3L689.362 1302.78Z" stroke="url(#paint23_linear_76_668)" stroke-width="4"/>
<path opacity="0.362319" d="M661.536 1280.37C660.322 1289.78 665.002 1298.96 673.323 1303.5L910.312 1432.93C915.85 1435.95 922.387 1436.57 928.393 1434.63L1274.01 1323.22C1278.96 1321.63 1283.21 1318.41 1286.1 1314.08L1465.81 1044.38C1470.42 1037.46 1470.93 1028.59 1467.16 1021.18L1356.54 804.089C1352.77 796.681 1345.29 791.887 1336.98 791.55L1013.16 778.41C1007.97 778.199 1002.86 779.752 998.661 782.815L705.378 996.941C700.281 1000.66 696.938 1006.31 696.129 1012.57L661.536 1280.37Z" stroke="url(#paint24_linear_76_668)" stroke-width="4"/>
<path opacity="0.376812" d="M635.019 1257.91C633.342 1267.2 637.515 1276.58 645.543 1281.55L873.164 1422.51C878.538 1425.84 885.046 1426.81 891.158 1425.2L1238.05 1333.39C1243.09 1332.06 1247.53 1329.05 1250.64 1324.86L1441.6 1067.33C1446.54 1060.67 1447.51 1051.86 1444.13 1044.28L1345.71 823.211C1342.33 815.632 1335.14 810.457 1326.88 809.67L1007.72 779.258C1002.53 778.763 997.32 780.049 992.954 782.904L692.617 979.267C687.326 982.727 683.692 988.211 682.569 994.433L635.019 1257.91Z" stroke="url(#paint25_linear_76_668)" stroke-width="4"/>
<path opacity="0.391304" d="M609.798 1235.48C607.667 1244.64 611.327 1254.17 619.04 1259.55L836.74 1411.43C841.934 1415.06 848.394 1416.38 854.595 1415.09L1201.66 1342.72C1206.79 1341.65 1211.4 1338.86 1214.73 1334.81L1416.16 1089.89C1421.42 1083.5 1422.84 1074.77 1419.87 1067.04L1333.75 842.682C1330.78 834.953 1323.89 829.414 1315.7 828.181L1002.12 780.952C996.941 780.172 991.648 781.184 987.12 783.822L680.777 962.276C675.303 965.464 671.387 970.768 669.952 976.937L609.798 1235.48Z" stroke="url(#paint26_linear_76_668)" stroke-width="4"/>
<path opacity="0.405797" d="M585.859 1213.14C583.283 1222.15 586.424 1231.81 593.8 1237.58L801.068 1399.73C806.067 1403.64 812.459 1405.31 818.732 1404.35L1164.9 1351.18C1170.1 1350.38 1174.88 1347.82 1178.42 1343.93L1389.53 1112C1395.09 1105.89 1396.95 1097.27 1394.4 1089.41L1320.65 862.435C1318.1 854.578 1311.53 848.693 1303.43 847.019L996.316 783.476C991.162 782.409 985.797 783.143 981.119 785.555L669.809 946.013C664.168 948.921 659.979 954.03 658.234 960.132L585.859 1213.14Z" stroke="url(#paint27_linear_76_668)" stroke-width="4"/>
<path opacity="0.42029" d="M563.18 1190.98C560.171 1199.8 562.788 1209.57 569.808 1215.71L766.174 1387.46C770.96 1391.64 777.266 1393.66 783.594 1393.03L1127.82 1358.76C1133.08 1358.24 1138 1355.92 1141.75 1352.19L1361.75 1133.59C1367.6 1127.78 1369.89 1119.29 1367.76 1111.33L1306.42 882.404C1304.28 874.442 1298.05 868.23 1290.08 866.122L990.259 786.811C985.147 785.459 979.725 785.909 974.906 788.086L659.665 930.522C653.871 933.141 649.418 938.041 647.366 944.06L563.18 1190.98Z" stroke="url(#paint28_linear_76_668)" stroke-width="4"/>
<path opacity="0.434783" d="M541.739 1169.05C538.307 1177.68 540.4 1187.52 547.043 1194.01L732.078 1374.65C736.637 1379.1 742.838 1381.46 749.203 1381.17L1090.46 1365.45C1095.77 1365.21 1100.83 1363.13 1104.78 1359.58L1332.86 1154.61C1338.97 1149.11 1341.69 1140.76 1339.98 1132.72L1291.05 902.525C1289.34 894.48 1283.46 887.96 1275.64 885.426L983.91 790.937C978.857 789.3 973.392 789.463 968.445 791.398L650.295 915.844C644.361 918.165 639.656 922.843 637.302 928.764L541.739 1169.05Z" stroke="url(#paint29_linear_76_668)" stroke-width="4"/>
<path opacity="0.449275" d="M521.507 1147.43C517.667 1155.84 519.233 1165.73 525.484 1172.54L698.8 1361.37C703.117 1366.07 709.195 1368.77 715.579 1368.82L1052.89 1371.24C1058.23 1371.28 1063.41 1369.46 1067.55 1366.1L1302.89 1174.99C1309.26 1169.81 1312.39 1161.64 1311.11 1153.53L1274.55 922.732C1273.27 914.628 1267.77 907.821 1260.11 904.869L977.231 795.833C972.251 793.914 966.759 793.786 961.695 795.472L641.645 902.015C635.588 904.031 630.641 908.475 627.989 914.282L521.507 1147.43Z" stroke="url(#paint30_linear_76_668)" stroke-width="4"/>
<path opacity="0.463768" d="M502.454 1126.18C498.219 1134.35 499.26 1144.26 505.101 1151.37L666.357 1347.66C670.417 1352.6 676.354 1355.63 682.739 1356.02L1015.14 1376.13C1020.5 1376.46 1025.79 1374.9 1030.12 1371.73L1271.91 1194.67C1278.51 1189.84 1282.05 1181.85 1281.19 1173.71L1256.94 942.963C1256.08 934.821 1250.96 927.748 1243.5 924.391L970.184 801.474C965.293 799.274 959.787 798.853 954.619 800.283L633.661 889.068C627.495 890.774 622.318 894.97 619.374 900.65L502.454 1126.18Z" stroke="url(#paint31_linear_76_668)" stroke-width="4"/>
<path opacity="0.478261" d="M484.545 1105.36C479.93 1113.27 480.448 1123.17 485.865 1130.56L634.76 1333.57C638.551 1338.74 644.328 1342.09 650.697 1342.82L977.279 1380.11C982.633 1380.72 988.032 1379.43 992.534 1376.47L1239.95 1213.62C1246.77 1209.13 1250.7 1201.36 1250.27 1193.21L1238.21 963.155C1237.79 955 1233.07 947.682 1225.81 943.93L962.733 807.834C957.946 805.358 952.442 804.641 947.181 805.809L626.287 877.035C620.028 878.424 614.634 882.362 611.404 887.899L484.545 1105.36Z" stroke="url(#paint32_linear_76_668)" stroke-width="4"/>
<path opacity="0.492754" d="M467.742 1085.04C462.762 1092.68 462.762 1102.53 467.742 1110.17L604.022 1319.15C607.531 1324.53 613.13 1328.2 619.464 1329.27L939.348 1383.18C944.688 1384.08 950.175 1383.07 954.842 1380.32L1207.07 1231.78C1214.09 1227.64 1218.4 1220.11 1218.4 1211.96L1218.4 983.247C1218.4 975.101 1214.09 967.563 1207.07 963.429L954.842 814.886C950.175 812.138 944.688 811.125 939.348 812.025L619.464 865.942C613.13 867.01 607.531 870.678 604.022 876.059L467.742 1085.04Z" stroke="url(#paint33_linear_76_668)" stroke-width="4"/>
<path opacity="0.507246" d="M452.004 1065.27C446.677 1072.61 446.164 1082.4 450.694 1090.26L574.149 1304.45C577.363 1310.03 582.768 1314 589.05 1315.41L901.401 1385.35C906.713 1386.54 912.274 1385.81 917.096 1383.28L1173.33 1249.1C1180.53 1245.33 1185.2 1238.04 1185.63 1229.93L1197.51 1003.18C1197.94 995.066 1194.05 987.33 1187.29 982.828L946.48 822.6C941.949 819.585 936.494 818.274 931.087 818.902L613.136 855.812C606.742 856.555 600.951 859.943 597.171 865.154L452.004 1065.27Z" stroke="url(#paint34_linear_76_668)" stroke-width="4"/>
<path opacity="0.521739" d="M437.288 1046.1C431.631 1053.13 430.612 1062.83 434.683 1070.88L545.146 1289.52C548.055 1295.28 553.248 1299.55 559.459 1301.29L863.487 1386.62C868.755 1388.1 874.378 1387.65 879.345 1385.36L1138.78 1265.55C1146.14 1262.15 1151.17 1255.13 1152.01 1247.07L1175.58 1022.9C1176.42 1014.84 1172.97 1006.93 1166.47 1002.07L937.616 830.946C933.234 827.669 927.828 826.062 922.367 826.413L607.242 846.666C600.805 847.08 594.836 850.178 590.794 855.206L437.288 1046.1Z" stroke="url(#paint35_linear_76_668)" stroke-width="4"/>
<path opacity="0.536232" d="M423.547 1027.58C417.578 1034.29 416.062 1043.87 419.665 1052.09L517.015 1274.41C519.608 1280.33 524.574 1284.89 530.696 1286.96L825.657 1387C830.866 1388.76 836.536 1388.61 841.637 1386.55L1103.49 1281.09C1110.98 1278.07 1116.34 1271.33 1117.61 1263.35L1152.61 1042.34C1153.88 1034.36 1150.86 1026.3 1144.66 1021.11L928.22 839.891C924.003 836.36 918.66 834.457 913.16 834.528L601.722 838.52C595.258 838.603 589.127 841.402 584.831 846.233L423.547 1027.58Z" stroke="url(#paint36_linear_76_668)" stroke-width="4"/>
<path opacity="0.550725" d="M410.732 1009.77C404.47 1016.15 402.467 1025.57 405.595 1033.94L489.755 1259.16C492.023 1265.23 496.746 1270.06 502.761 1272.47L787.96 1386.5C793.094 1388.55 798.796 1388.69 804.022 1386.88L1067.5 1295.68C1075.12 1293.04 1080.8 1286.61 1082.47 1278.72L1128.65 1061.46C1130.33 1053.58 1127.76 1045.39 1121.87 1039.88L918.266 849.402C914.228 845.624 908.964 843.427 903.438 843.214L596.516 831.386C590.042 831.136 583.763 833.629 579.223 838.251L410.732 1009.77Z" stroke="url(#paint37_linear_76_668)" stroke-width="4"/>
<path opacity="0.565217" d="M398.792 992.707C392.256 998.731 389.778 1007.98 392.425 1016.47L463.363 1243.84C465.297 1250.03 469.761 1255.13 475.653 1257.85L750.442 1385.13C755.487 1387.47 761.208 1387.9 766.545 1386.35L1030.89 1309.29C1038.6 1307.04 1044.59 1300.93 1046.67 1293.16L1103.73 1080.2C1105.81 1072.44 1103.69 1064.15 1098.13 1058.35L907.728 859.443C903.883 855.427 898.714 852.939 893.177 852.441L591.563 825.273C585.096 824.691 578.684 826.869 573.91 831.27L398.792 992.707Z" stroke="url(#paint38_linear_76_668)" stroke-width="4"/>
<path opacity="0.57971" d="M387.673 976.431C380.884 982.094 377.942 991.148 380.106 999.72L437.833 1228.47C439.425 1234.78 443.616 1240.12 449.366 1243.17L713.151 1382.92C718.092 1385.54 723.816 1386.27 729.254 1384.97L993.713 1321.9C1001.51 1320.04 1007.78 1314.26 1010.25 1306.64L1077.87 1098.52C1080.35 1090.9 1078.68 1082.53 1073.47 1076.45L896.584 869.981C892.947 865.735 887.888 862.96 882.353 862.173L586.801 820.188C580.358 819.272 573.829 821.129 568.832 825.298L387.673 976.431Z" stroke="url(#paint39_linear_76_668)" stroke-width="4"/>
<path opacity="0.594203" d="M377.32 960.98C370.298 966.272 366.908 975.104 368.585 983.735L413.155 1213.12C414.399 1219.52 418.303 1225.09 423.895 1228.45L676.133 1379.88C680.953 1382.77 686.667 1383.8 692.194 1382.77L956.039 1333.49C963.894 1332.02 970.425 1326.59 973.289 1319.13L1051.12 1116.36C1053.99 1108.9 1052.77 1100.49 1047.92 1094.14L884.813 880.977C881.397 876.512 876.463 873.453 870.944 872.378L582.17 816.131C575.768 814.884 569.138 816.413 563.929 820.339L377.32 960.98Z" stroke="url(#paint40_linear_76_668)" stroke-width="4"/>
<path opacity="0.608696" d="M367.676 946.39C360.443 951.301 356.619 959.889 357.81 968.55L389.319 1197.82C390.209 1204.3 393.813 1210.09 399.229 1213.75L639.431 1376.03C644.117 1379.2 649.805 1380.52 655.408 1379.76L917.931 1344.04C925.825 1342.97 932.601 1337.88 935.841 1330.6L1023.51 1133.69C1026.75 1126.41 1026 1117.98 1021.51 1111.39L872.397 892.395C869.214 887.721 864.421 884.383 858.933 883.019L577.609 813.101C571.265 811.525 564.55 812.722 559.142 816.394L367.676 946.39Z" stroke="url(#paint41_linear_76_668)" stroke-width="4"/>
<path opacity="0.623188" d="M358.683 932.69C351.259 937.212 347.019 945.533 347.724 954.198L366.311 1182.63C366.842 1189.16 370.133 1195.15 375.358 1199.1L603.088 1371.4C607.624 1374.83 613.271 1376.46 618.939 1375.97L879.453 1353.53C887.366 1352.85 894.367 1348.13 897.973 1341.06L995.088 1150.46C998.693 1143.38 998.393 1134.95 994.293 1128.15L859.319 904.196C856.382 899.324 851.745 895.713 846.302 894.061L573.058 811.095C566.789 809.191 560.006 810.051 554.411 813.46L358.683 932.69Z" stroke="url(#paint42_linear_76_668)" stroke-width="4"/>
<path opacity="0.637681" d="M350.282 919.906C342.689 924.032 338.05 932.067 338.273 940.706L344.115 1167.57C344.284 1174.14 347.251 1180.32 352.268 1184.55L567.146 1366C571.518 1369.69 577.109 1371.62 582.828 1371.41L840.672 1361.96C848.583 1361.67 855.789 1357.33 859.748 1350.47L965.888 1166.63C969.846 1159.78 970 1151.37 966.296 1144.37L845.564 916.342C842.887 911.285 838.42 907.407 833.036 905.467L568.459 810.101C562.281 807.874 555.446 808.395 549.676 811.531L350.282 919.906Z" stroke="url(#paint43_linear_76_668)" stroke-width="4"/>
<path opacity="0.652174" d="M342.412 908.061C334.672 911.786 329.653 919.514 329.398 928.1L322.712 1152.71C322.516 1159.29 325.148 1165.64 329.943 1170.14L531.643 1359.88C535.836 1363.83 541.357 1366.05 547.114 1366.13L801.653 1369.31C809.543 1369.41 816.933 1365.46 821.23 1358.84L935.957 1182.17C940.255 1175.56 940.86 1167.2 937.561 1160.03L831.121 928.793C828.714 923.563 824.433 919.426 819.123 917.2L563.752 810.11C557.682 807.564 550.812 807.741 544.882 810.596L342.412 908.061Z" stroke="url(#paint44_linear_76_668)" stroke-width="4"/>
<path opacity="0.666667" d="M335.011 897.174C327.147 900.494 321.768 907.897 321.041 916.403L302.082 1138.07C301.52 1144.64 303.808 1151.14 308.364 1155.91L496.617 1353.06C500.618 1357.25 506.053 1359.77 511.835 1360.13L762.462 1375.59C770.31 1376.07 777.863 1372.51 782.485 1366.15L905.343 1197.05C909.965 1190.69 911.017 1182.41 908.131 1175.09L815.981 941.511C813.855 936.121 809.773 931.733 804.552 929.223L558.881 811.105C552.935 808.246 546.048 808.079 539.97 810.645L335.011 897.174Z" stroke="url(#paint45_linear_76_668)" stroke-width="4"/>
<path opacity="0.681159" d="M328.02 887.26C320.052 890.171 314.334 897.232 313.142 905.631L282.204 1123.69C281.275 1130.24 283.209 1136.87 287.513 1141.89L462.104 1345.57C465.898 1350 471.232 1352.82 477.027 1353.46L723.162 1380.8C730.951 1381.66 738.644 1378.5 743.575 1372.41L874.092 1211.24C879.023 1205.15 880.515 1196.97 878.049 1189.53L800.135 954.454C798.3 948.92 794.433 944.289 789.314 941.498L553.79 813.069C547.984 809.903 541.096 809.389 534.884 811.659L328.02 887.26Z" stroke="url(#paint46_linear_76_668)" stroke-width="4"/>
<path opacity="0.695652" d="M321.374 878.33C313.325 880.831 307.29 887.535 305.643 895.8L263.051 1109.62C261.756 1116.12 263.33 1122.87 267.368 1128.12L428.136 1337.44C431.711 1342.1 436.929 1345.21 442.723 1346.14L683.819 1384.94C691.528 1386.18 699.34 1383.42 704.565 1377.62L842.251 1224.7C847.476 1218.9 849.399 1210.84 847.36 1203.31L783.577 967.585C782.045 961.92 778.405 957.056 773.402 953.987L548.424 815.979C542.773 812.513 535.902 811.653 529.571 813.621L321.374 878.33Z" stroke="url(#paint47_linear_76_668)" stroke-width="4"/>
<path opacity="0.710145" d="M315.013 870.392C306.906 872.483 300.575 878.813 298.484 886.921L244.6 1095.89C242.94 1102.32 244.145 1109.16 247.904 1114.64L394.746 1328.72C398.088 1333.59 403.176 1336.99 408.955 1338.21L644.496 1388.02C652.107 1389.63 660.016 1387.28 665.517 1381.78L809.871 1237.42C815.372 1231.92 817.719 1224.01 816.11 1216.4L766.306 980.863C765.084 975.084 761.685 969.996 756.814 966.654L542.731 819.812C537.251 816.053 530.413 814.848 523.978 816.507L315.013 870.392Z" stroke="url(#paint48_linear_76_668)" stroke-width="4"/>
<path opacity="0.724638" d="M308.874 863.45C300.73 865.13 294.127 871.076 291.605 878.999L226.82 1082.52C224.8 1088.87 225.63 1095.78 229.098 1101.47L361.963 1319.44C365.059 1324.52 370.001 1328.2 375.753 1329.71L605.254 1390.05C612.749 1392.02 620.733 1390.09 626.493 1384.9L777.001 1249.38C782.76 1244.2 785.521 1236.46 784.344 1228.8L748.32 994.249C747.417 988.371 744.272 983.07 739.545 979.461L536.659 824.539C531.365 820.497 524.578 818.948 518.054 820.294L308.874 863.45Z" stroke="url(#paint49_linear_76_668)" stroke-width="4"/>
<path opacity="0.73913" d="M302.897 857.504C294.738 858.775 287.887 864.323 284.947 872.04L209.684 1069.56C207.306 1075.8 207.758 1082.77 210.922 1088.65L329.813 1309.63C332.651 1314.9 337.434 1318.86 343.145 1320.67L566.155 1391.06C573.517 1393.39 581.554 1391.86 587.553 1387L743.692 1260.56C749.691 1255.71 752.853 1248.16 752.111 1240.48L729.62 1007.7C729.044 1001.74 726.165 996.242 721.596 992.37L530.16 830.132C525.066 825.814 518.346 823.924 511.748 824.952L302.897 857.504Z" stroke="url(#paint50_linear_76_668)" stroke-width="4"/>
<path opacity="0.753623" d="M297.021 852.549C288.868 853.415 281.793 858.556 278.45 866.042L193.16 1057.03C190.431 1063.14 190.5 1070.14 193.349 1076.2L298.322 1299.34C300.889 1304.8 305.497 1309.03 311.154 1311.12L527.259 1391.06C534.47 1393.73 542.538 1392.62 548.758 1388.1L709.995 1270.95C716.215 1266.43 719.766 1259.1 719.457 1251.42L710.209 1021.19C709.966 1015.16 707.367 1009.47 702.97 1005.34L523.188 836.555C518.307 831.973 511.672 829.745 505.015 830.452L297.021 852.549Z" stroke="url(#paint51_linear_76_668)" stroke-width="4"/>
<path opacity="0.768116" d="M291.185 848.579C283.06 849.044 275.785 853.768 272.056 861.002L177.217 1044.96C174.142 1050.92 173.825 1057.93 176.351 1064.15L267.51 1288.6C269.796 1294.23 274.216 1298.73 279.805 1301.11L488.623 1390.07C495.667 1393.08 503.743 1392.37 510.164 1388.2L675.961 1280.53C682.383 1276.36 686.308 1269.27 686.431 1261.62L690.092 1034.67C690.19 1028.59 687.881 1022.73 683.669 1018.35L515.697 843.776C511.043 838.94 504.51 836.377 497.81 836.76L291.185 848.579Z" stroke="url(#paint52_linear_76_668)" stroke-width="4"/>
<path opacity="0.782609" d="M285.332 845.584C277.255 845.652 269.806 849.953 265.708 856.914L161.821 1033.37C158.407 1039.16 157.704 1046.17 159.896 1052.53L237.399 1277.47C239.392 1283.26 243.61 1288.01 249.117 1290.68L450.302 1388.13C457.163 1391.45 465.226 1391.16 471.828 1387.35L641.642 1289.31C648.244 1285.49 652.529 1278.66 653.081 1271.05L669.278 1048.1C669.721 1041.99 667.713 1035.97 663.699 1031.35L507.645 851.755C503.232 846.676 496.816 843.784 490.088 843.842L285.332 845.584Z" stroke="url(#paint53_linear_76_668)" stroke-width="4"/>
<path opacity="0.797101" d="M279.403 843.548C271.395 843.227 263.797 847.098 259.349 853.766L146.938 1022.28C143.195 1027.9 142.104 1034.87 143.953 1041.35L208.004 1265.98C209.695 1271.91 213.696 1276.91 219.11 1279.86L412.35 1385.26C419.014 1388.89 427.042 1389 433.805 1385.56L607.088 1297.26C613.851 1293.82 618.479 1287.26 619.455 1279.73L647.774 1061.45C648.568 1055.33 646.872 1049.15 643.069 1044.3L498.993 860.452C494.833 855.143 488.551 851.928 481.811 851.658L279.403 843.548Z" stroke="url(#paint54_linear_76_668)" stroke-width="4"/>
<path opacity="0.811594" d="M273.343 842.454C265.423 841.751 257.701 845.189 252.924 851.545L132.533 1011.73C128.47 1017.13 126.992 1024.06 128.492 1030.65L179.342 1254.17C180.72 1260.23 184.492 1265.47 189.798 1268.71L374.82 1381.48C381.271 1385.42 389.243 1385.93 396.146 1382.86L572.351 1304.41C579.253 1301.33 584.206 1295.06 585.601 1287.64L625.594 1074.68C626.74 1068.57 625.367 1062.26 621.787 1057.18L489.705 869.827C485.808 864.3 479.676 860.768 472.94 860.17L273.343 842.454Z" stroke="url(#paint55_linear_76_668)" stroke-width="4"/>
<path opacity="0.826087" d="M267.097 842.282C259.284 841.205 251.465 844.207 246.379 850.235L118.57 1001.72C114.198 1006.9 112.335 1013.75 113.479 1020.43L151.424 1242.09C152.48 1248.26 156.009 1253.74 161.195 1257.25L337.759 1376.85C343.985 1381.07 351.88 1381.98 358.9 1379.28L537.48 1310.73C544.5 1308.04 549.76 1302.08 551.565 1294.78L602.748 1087.75C604.251 1081.67 603.21 1075.24 599.865 1069.95L479.745 879.835C476.123 874.103 470.157 870.261 463.44 869.335L267.097 842.282Z" stroke="url(#paint56_linear_76_668)" stroke-width="4"/>
<path opacity="0.84058" d="M260.613 843.007C252.926 841.567 245.034 844.131 239.662 849.815L105.013 992.27C100.343 997.21 98.0982 1003.96 98.8805 1010.72L124.259 1229.78C124.986 1236.05 128.259 1241.75 133.311 1245.54L301.214 1371.4C307.202 1375.89 314.999 1377.18 322.117 1374.87L502.525 1316.25C509.642 1313.94 515.189 1308.31 517.395 1301.16L579.253 1100.64C581.115 1094.61 580.414 1088.08 577.315 1082.58L469.083 890.43C465.746 884.507 459.961 880.363 453.279 879.111L260.613 843.007Z" stroke="url(#paint57_linear_76_668)" stroke-width="4"/>
<path opacity="0.855072" d="M253.839 844.604C246.296 842.81 238.357 844.938 232.722 850.263L91.8241 983.397C86.8701 988.078 84.2474 994.715 84.6633 1001.52L97.8551 1217.29C98.2435 1223.65 101.249 1229.56 106.155 1233.61L265.229 1365.16C270.967 1369.91 278.647 1371.58 285.839 1369.65L467.533 1320.97C474.725 1319.04 480.54 1313.75 483.136 1306.77L555.125 1113.31C557.346 1107.35 556.993 1100.73 554.153 1095.03L457.689 901.566C454.648 895.466 449.058 891.03 442.427 889.453L253.839 844.604Z" stroke="url(#paint58_linear_76_668)" stroke-width="4"/>
<path opacity="0.869565" d="M246.728 847.042C239.346 844.907 231.386 846.599 225.511 851.552L78.9671 975.11C73.7427 979.515 70.7476 986.015 70.7935 992.849L72.2164 1204.67C72.2595 1211.09 74.9844 1217.2 79.7321 1221.52L229.845 1358.18C235.322 1363.17 242.865 1365.21 250.11 1363.67L432.554 1324.89C439.799 1323.35 445.859 1318.42 448.835 1311.64L530.382 1125.73C532.962 1119.85 532.966 1113.16 530.394 1107.28L445.54 913.194C442.802 906.932 437.422 902.213 430.858 900.313L246.728 847.042Z" stroke="url(#paint59_linear_76_668)" stroke-width="4"/>
<path opacity="0.884058" d="M239.234 850.29C232.029 847.825 224.072 849.085 217.982 853.656L66.4045 967.419C60.9245 971.532 57.5635 977.874 57.2369 984.718L47.3451 1191.94C47.0363 1198.41 49.4691 1204.71 54.046 1209.3L195.099 1350.51C200.306 1355.72 207.694 1358.13 214.97 1356.98L397.632 1328.04C404.909 1326.89 411.193 1322.32 414.533 1315.76L505.044 1137.86C507.981 1132.09 508.349 1125.35 506.056 1119.29L432.612 925.265C430.186 918.857 425.03 913.864 418.547 911.646L239.234 850.29Z" stroke="url(#paint60_linear_76_668)" stroke-width="4"/>
<path opacity="0.898551" d="M231.312 854.312C224.3 851.531 216.37 852.364 210.09 856.543L54.0984 960.331C48.3788 964.137 44.6598 970.3 43.9589 977.134L23.2401 1179.17C22.5736 1185.68 24.7032 1192.15 29.0972 1196.99L161.027 1342.19C165.954 1347.62 173.168 1350.37 180.454 1349.6L362.813 1330.43C370.099 1329.67 376.584 1325.48 380.275 1319.15L479.133 1149.69C482.425 1144.04 483.161 1137.27 481.158 1131.05L418.885 937.728C416.779 931.189 411.86 925.934 405.474 923.4L231.312 854.312Z" stroke="url(#paint61_linear_76_668)" stroke-width="4"/>
<path opacity="0.913043" d="M222.922 859.072C216.118 855.988 208.24 856.401 201.795 860.179L42.0118 953.851C36.0694 957.334 32.0012 963.298 30.9258 970.102L-0.101266 1166.4C-1.13071 1172.91 0.684675 1179.55 4.88399 1184.64L127.66 1333.27C132.299 1338.89 139.323 1341.98 146.597 1341.6L328.139 1332.08C335.413 1331.7 342.076 1327.9 346.102 1321.83L452.669 1161.17C456.314 1155.68 457.425 1148.88 455.721 1142.51L404.345 950.532C402.564 943.877 397.895 938.372 391.621 935.528L222.922 859.072Z" stroke="url(#paint62_linear_76_668)" stroke-width="4"/>
<path opacity="0.927536" d="M214.024 864.53C207.442 861.159 199.639 861.159 193.057 864.53L30.1075 947.98C23.9601 951.128 19.5529 956.872 18.1035 963.625L-22.6847 1153.66C-24.0814 1160.17 -22.5906 1166.96 -18.5976 1172.29L95.0271 1323.81C99.3707 1329.6 106.188 1333.01 113.428 1333.01L293.653 1333.01C300.893 1333.01 307.71 1329.6 312.054 1323.81L425.679 1172.29C429.672 1166.96 431.162 1160.17 429.766 1153.66L388.978 963.625C387.528 956.872 383.121 951.128 376.974 947.98L214.024 864.53Z" stroke="url(#paint63_linear_76_668)" stroke-width="4"/>
<path opacity="0.942029" d="M204.585 870.646C198.236 867.003 190.533 866.599 183.838 869.559L18.3489 942.718C12.0152 945.518 7.28016 951.023 5.45858 957.705L-44.518 1141.01C-46.2855 1147.49 -45.1296 1154.42 -41.354 1159.98L63.153 1313.84C67.1956 1319.79 73.7904 1323.51 80.9754 1323.89L259.394 1333.24C266.579 1333.61 273.526 1330.61 278.169 1325.11L398.186 1183.02C402.522 1177.88 404.396 1171.11 403.316 1164.48L372.774 976.955C371.66 970.12 367.527 964.15 361.52 960.703L204.585 870.646Z" stroke="url(#paint64_linear_76_668)" stroke-width="4"/>
<path opacity="0.956522" d="M194.571 877.376C188.468 873.477 180.885 872.68 174.105 875.225L6.69974 938.065C0.199006 940.505 -4.85137 945.752 -7.04234 952.341L-65.6117 1128.48C-67.7529 1134.92 -66.9413 1141.97 -63.3942 1147.76L32.0596 1303.43C35.7962 1309.52 42.1538 1313.53 49.2629 1314.28L225.4 1332.79C232.509 1333.54 239.561 1330.94 244.483 1325.76L370.217 1193.33C374.89 1188.41 377.15 1181.68 376.395 1174.93L355.726 990.469C354.953 983.569 351.104 977.387 345.253 973.648L194.571 877.376Z" stroke="url(#paint65_linear_76_668)" stroke-width="4"/>
<path opacity="0.971014" d="M183.952 884.676C178.106 880.538 170.665 879.359 163.826 881.489L-4.87593 934.016C-11.5234 936.085 -16.8756 941.055 -19.432 947.531L-85.9787 1116.11C-88.4954 1122.49 -88.0374 1129.65 -84.7294 1135.66L1.76504 1292.63C5.19168 1298.85 11.2984 1303.13 18.3113 1304.24L191.706 1331.71C198.719 1332.82 205.851 1330.63 211.032 1325.77L341.8 1203.21C346.801 1198.53 349.451 1191.85 349.027 1185.01L337.832 1004.12C337.402 997.167 333.848 990.787 328.165 986.764L183.952 884.676Z" stroke="url(#paint66_linear_76_668)" stroke-width="4"/>
<path opacity="0.985507" d="M172.702 892.501C167.122 888.14 159.844 886.593 152.972 888.307L-16.4127 930.564C-23.186 932.254 -28.8253 936.928 -31.7419 943.27L-105.634 1103.95C-108.527 1110.24 -108.431 1117.51 -105.373 1123.72L-27.7154 1281.49C-24.6016 1287.81 -18.7584 1292.36 -11.8618 1293.83L158.346 1330.01C165.243 1331.47 172.431 1329.69 177.848 1325.18L312.961 1212.64C318.283 1208.21 321.324 1201.61 321.24 1194.69L319.091 1017.84C319.007 1010.86 315.756 1004.3 310.256 999.999L172.702 892.501Z" stroke="url(#paint67_linear_76_668)" stroke-width="4"/>
<path d="M160.797 900.803C155.492 896.237 148.396 894.336 141.518 895.637L-27.9454 927.702C-34.8228 929.003 -40.7334 933.365 -44.0041 939.553L-124.594 1092.04C-127.865 1098.23 -128.139 1105.57 -125.34 1111.98L-56.3708 1270.06C-53.5718 1276.48 -48.0037 1281.27 -41.2427 1283.08L125.351 1327.72C132.112 1329.53 139.33 1328.17 144.962 1324.01L283.731 1221.59C289.363 1217.44 292.796 1210.94 293.057 1203.95L299.506 1031.6C299.768 1024.6 296.83 1017.87 291.525 1013.3L160.797 900.803Z" stroke="url(#paint68_linear_76_668)" stroke-width="4"/>
<defs>
<linearGradient id="paint0_linear_76_668" x1="1667.91" y1="1645.24" x2="1484.03" y2="484.222" gradientUnits="userSpaceOnUse">
<stop stop-color="#FF1CF7"/>
<stop offset="1" stop-color="#00F0FF"/>
</linearGradient>
<linearGradient id="paint1_linear_76_668" x1="1616.15" y1="1644.5" x2="1494.36" y2="485.766" gradientUnits="userSpaceOnUse">
<stop stop-color="#FF1CF7"/>
<stop offset="1" stop-color="#00F0FF"/>
</linearGradient>
<linearGradient id="paint2_linear_76_668" x1="1564.74" y1="1642.17" x2="1504.31" y2="489.015" gradientUnits="userSpaceOnUse">
<stop stop-color="#FF1CF7"/>
<stop offset="1" stop-color="#00F0FF"/>
</linearGradient>
<linearGradient id="paint3_linear_76_668" x1="1513.78" y1="1638.29" x2="1513.78" y2="493.93" gradientUnits="userSpaceOnUse">
<stop stop-color="#FF1CF7"/>
<stop offset="1" stop-color="#00F0FF"/>
</linearGradient>
<linearGradient id="paint4_linear_76_668" x1="1463.34" y1="1632.9" x2="1522.69" y2="500.471" gradientUnits="userSpaceOnUse">
<stop stop-color="#FF1CF7"/>
<stop offset="1" stop-color="#00F0FF"/>
</linearGradient>
<linearGradient id="paint5_linear_76_668" x1="1413.51" y1="1626.05" x2="1530.95" y2="508.59" gradientUnits="userSpaceOnUse">
<stop stop-color="#FF1CF7"/>
<stop offset="1" stop-color="#00F0FF"/>
</linearGradient>
<linearGradient id="paint6_linear_76_668" x1="1364.34" y1="1617.77" x2="1538.49" y2="518.237" gradientUnits="userSpaceOnUse">
<stop stop-color="#FF1CF7"/>
<stop offset="1" stop-color="#00F0FF"/>
</linearGradient>
<linearGradient id="paint7_linear_76_668" x1="1315.93" y1="1608.12" x2="1545.23" y2="529.358" gradientUnits="userSpaceOnUse">
<stop stop-color="#FF1CF7"/>
<stop offset="1" stop-color="#00F0FF"/>
</linearGradient>
<linearGradient id="paint8_linear_76_668" x1="1268.33" y1="1597.15" x2="1551.08" y2="541.893" gradientUnits="userSpaceOnUse">
<stop stop-color="#FF1CF7"/>
<stop offset="1" stop-color="#00F0FF"/>
</linearGradient>
<linearGradient id="paint9_linear_76_668" x1="1221.61" y1="1584.93" x2="1556" y2="555.781" gradientUnits="userSpaceOnUse">
<stop stop-color="#FF1CF7"/>
<stop offset="1" stop-color="#00F0FF"/>
</linearGradient>
<linearGradient id="paint10_linear_76_668" x1="1175.82" y1="1571.51" x2="1559.9" y2="570.957" gradientUnits="userSpaceOnUse">
<stop stop-color="#FF1CF7"/>
<stop offset="1" stop-color="#00F0FF"/>
</linearGradient>
<linearGradient id="paint11_linear_76_668" x1="1131.04" y1="1556.95" x2="1562.73" y2="587.351" gradientUnits="userSpaceOnUse">
<stop stop-color="#FF1CF7"/>
<stop offset="1" stop-color="#00F0FF"/>
</linearGradient>
<linearGradient id="paint12_linear_76_668" x1="1087.3" y1="1541.33" x2="1564.44" y2="604.894" gradientUnits="userSpaceOnUse">
<stop stop-color="#FF1CF7"/>
<stop offset="1" stop-color="#00F0FF"/>
</linearGradient>
<linearGradient id="paint13_linear_76_668" x1="1044.66" y1="1524.71" x2="1564.96" y2="623.511" gradientUnits="userSpaceOnUse">
<stop stop-color="#FF1CF7"/>
<stop offset="1" stop-color="#00F0FF"/>
</linearGradient>
<linearGradient id="paint14_linear_76_668" x1="1003.16" y1="1507.16" x2="1564.27" y2="643.127" gradientUnits="userSpaceOnUse">
<stop stop-color="#FF1CF7"/>
<stop offset="1" stop-color="#00F0FF"/>
</linearGradient>
<linearGradient id="paint15_linear_76_668" x1="962.837" y1="1488.75" x2="1562.3" y2="663.663" gradientUnits="userSpaceOnUse">
<stop stop-color="#FF1CF7"/>
<stop offset="1" stop-color="#00F0FF"/>
</linearGradient>
<linearGradient id="paint16_linear_76_668" x1="923.732" y1="1469.56" x2="1559.02" y2="685.04" gradientUnits="userSpaceOnUse">
<stop stop-color="#FF1CF7"/>
<stop offset="1" stop-color="#00F0FF"/>
</linearGradient>
<linearGradient id="paint17_linear_76_668" x1="885.873" y1="1449.66" x2="1554.41" y2="707.177" gradientUnits="userSpaceOnUse">
<stop stop-color="#FF1CF7"/>
<stop offset="1" stop-color="#00F0FF"/>
</linearGradient>
<linearGradient id="paint18_linear_76_668" x1="849.285" y1="1429.13" x2="1548.43" y2="729.992" gradientUnits="userSpaceOnUse">
<stop stop-color="#FF1CF7"/>
<stop offset="1" stop-color="#00F0FF"/>
</linearGradient>
<linearGradient id="paint19_linear_76_668" x1="813.991" y1="1408.05" x2="1541.06" y2="753.401" gradientUnits="userSpaceOnUse">
<stop stop-color="#FF1CF7"/>
<stop offset="1" stop-color="#00F0FF"/>
</linearGradient>
<linearGradient id="paint20_linear_76_668" x1="780.009" y1="1386.5" x2="1532.28" y2="777.323" gradientUnits="userSpaceOnUse">
<stop stop-color="#FF1CF7"/>
<stop offset="1" stop-color="#00F0FF"/>
</linearGradient>
<linearGradient id="paint21_linear_76_668" x1="747.348" y1="1364.54" x2="1522.07" y2="801.672" gradientUnits="userSpaceOnUse">
<stop stop-color="#FF1CF7"/>
<stop offset="1" stop-color="#00F0FF"/>
</linearGradient>
<linearGradient id="paint22_linear_76_668" x1="716.019" y1="1342.27" x2="1510.44" y2="826.365" gradientUnits="userSpaceOnUse">
<stop stop-color="#FF1CF7"/>
<stop offset="1" stop-color="#00F0FF"/>
</linearGradient>
<linearGradient id="paint23_linear_76_668" x1="686.024" y1="1319.75" x2="1497.37" y2="851.319" gradientUnits="userSpaceOnUse">
<stop stop-color="#FF1CF7"/>
<stop offset="1" stop-color="#00F0FF"/>
</linearGradient>
<linearGradient id="paint24_linear_76_668" x1="657.363" y1="1297.07" x2="1482.87" y2="876.451" gradientUnits="userSpaceOnUse">
<stop stop-color="#FF1CF7"/>
<stop offset="1" stop-color="#00F0FF"/>
</linearGradient>
<linearGradient id="paint25_linear_76_668" x1="630.03" y1="1274.29" x2="1466.94" y2="901.679" gradientUnits="userSpaceOnUse">
<stop stop-color="#FF1CF7"/>
<stop offset="1" stop-color="#00F0FF"/>
</linearGradient>
<linearGradient id="paint26_linear_76_668" x1="604.015" y1="1251.51" x2="1449.59" y2="926.922" gradientUnits="userSpaceOnUse">
<stop stop-color="#FF1CF7"/>
<stop offset="1" stop-color="#00F0FF"/>
</linearGradient>
<linearGradient id="paint27_linear_76_668" x1="579.305" y1="1228.78" x2="1430.84" y2="952.1" gradientUnits="userSpaceOnUse">
<stop stop-color="#FF1CF7"/>
<stop offset="1" stop-color="#00F0FF"/>
</linearGradient>
<linearGradient id="paint28_linear_76_668" x1="555.881" y1="1206.19" x2="1410.71" y2="977.137" gradientUnits="userSpaceOnUse">
<stop stop-color="#FF1CF7"/>
<stop offset="1" stop-color="#00F0FF"/>
</linearGradient>
<linearGradient id="paint29_linear_76_668" x1="533.721" y1="1183.8" x2="1389.22" y2="1001.95" gradientUnits="userSpaceOnUse">
<stop stop-color="#FF1CF7"/>
<stop offset="1" stop-color="#00F0FF"/>
</linearGradient>
<linearGradient id="paint30_linear_76_668" x1="512.801" y1="1161.68" x2="1366.4" y2="1026.48" gradientUnits="userSpaceOnUse">
<stop stop-color="#FF1CF7"/>
<stop offset="1" stop-color="#00F0FF"/>
</linearGradient>
<linearGradient id="paint31_linear_76_668" x1="493.09" y1="1139.9" x2="1342.28" y2="1050.64" gradientUnits="userSpaceOnUse">
<stop stop-color="#FF1CF7"/>
<stop offset="1" stop-color="#00F0FF"/>
</linearGradient>
<linearGradient id="paint32_linear_76_668" x1="474.556" y1="1118.52" x2="1316.89" y2="1074.37" gradientUnits="userSpaceOnUse">
<stop stop-color="#FF1CF7"/>
<stop offset="1" stop-color="#00F0FF"/>
</linearGradient>
<linearGradient id="paint33_linear_76_668" x1="457.161" y1="1097.6" x2="1290.27" y2="1097.6" gradientUnits="userSpaceOnUse">
<stop stop-color="#FF1CF7"/>
<stop offset="1" stop-color="#00F0FF"/>
</linearGradient>
<linearGradient id="paint34_linear_76_668" x1="440.867" y1="1077.21" x2="1262.48" y2="1120.27" gradientUnits="userSpaceOnUse">
<stop stop-color="#FF1CF7"/>
<stop offset="1" stop-color="#00F0FF"/>
</linearGradient>
<linearGradient id="paint35_linear_76_668" x1="425.631" y1="1057.4" x2="1233.54" y2="1142.32" gradientUnits="userSpaceOnUse">
<stop stop-color="#FF1CF7"/>
<stop offset="1" stop-color="#00F0FF"/>
</linearGradient>
<linearGradient id="paint36_linear_76_668" x1="411.408" y1="1038.22" x2="1203.52" y2="1163.68" gradientUnits="userSpaceOnUse">
<stop stop-color="#FF1CF7"/>
<stop offset="1" stop-color="#00F0FF"/>
</linearGradient>
<linearGradient id="paint37_linear_76_668" x1="398.149" y1="1019.73" x2="1172.46" y2="1184.31" gradientUnits="userSpaceOnUse">
<stop stop-color="#FF1CF7"/>
<stop offset="1" stop-color="#00F0FF"/>
</linearGradient>
<linearGradient id="paint38_linear_76_668" x1="385.803" y1="1001.96" x2="1140.42" y2="1204.16" gradientUnits="userSpaceOnUse">
<stop stop-color="#FF1CF7"/>
<stop offset="1" stop-color="#00F0FF"/>
</linearGradient>
<linearGradient id="paint39_linear_76_668" x1="374.32" y1="984.966" x2="1107.45" y2="1223.18" gradientUnits="userSpaceOnUse">
<stop stop-color="#FF1CF7"/>
<stop offset="1" stop-color="#00F0FF"/>
</linearGradient>
<linearGradient id="paint40_linear_76_668" x1="363.642" y1="968.784" x2="1073.62" y2="1241.32" gradientUnits="userSpaceOnUse">
<stop stop-color="#FF1CF7"/>
<stop offset="1" stop-color="#00F0FF"/>
</linearGradient>
<linearGradient id="paint41_linear_76_668" x1="353.716" y1="953.451" x2="1038.98" y2="1258.55" gradientUnits="userSpaceOnUse">
<stop stop-color="#FF1CF7"/>
<stop offset="1" stop-color="#00F0FF"/>
</linearGradient>
<linearGradient id="paint42_linear_76_668" x1="344.481" y1="938.999" x2="1003.59" y2="1274.83" gradientUnits="userSpaceOnUse">
<stop stop-color="#FF1CF7"/>
<stop offset="1" stop-color="#00F0FF"/>
</linearGradient>
<linearGradient id="paint43_linear_76_668" x1="335.88" y1="925.457" x2="967.526" y2="1290.14" gradientUnits="userSpaceOnUse">
<stop stop-color="#FF1CF7"/>
<stop offset="1" stop-color="#00F0FF"/>
</linearGradient>
<linearGradient id="paint44_linear_76_668" x1="327.851" y1="912.85" x2="930.844" y2="1304.44" gradientUnits="userSpaceOnUse">
<stop stop-color="#FF1CF7"/>
<stop offset="1" stop-color="#00F0FF"/>
</linearGradient>
<linearGradient id="paint45_linear_76_668" x1="320.334" y1="901.199" x2="893.613" y2="1317.71" gradientUnits="userSpaceOnUse">
<stop stop-color="#FF1CF7"/>
<stop offset="1" stop-color="#00F0FF"/>
</linearGradient>
<linearGradient id="paint46_linear_76_668" x1="313.266" y1="890.522" x2="855.899" y2="1329.94" gradientUnits="userSpaceOnUse">
<stop stop-color="#FF1CF7"/>
<stop offset="1" stop-color="#00F0FF"/>
</linearGradient>
<linearGradient id="paint47_linear_76_668" x1="306.586" y1="880.832" x2="817.767" y2="1341.1" gradientUnits="userSpaceOnUse">
<stop stop-color="#FF1CF7"/>
<stop offset="1" stop-color="#00F0FF"/>
</linearGradient>
<linearGradient id="paint48_linear_76_668" x1="300.231" y1="872.139" x2="779.287" y2="1351.19" gradientUnits="userSpaceOnUse">
<stop stop-color="#FF1CF7"/>
<stop offset="1" stop-color="#00F0FF"/>
</linearGradient>
<linearGradient id="paint49_linear_76_668" x1="294.138" y1="864.448" x2="740.523" y2="1360.21" gradientUnits="userSpaceOnUse">
<stop stop-color="#FF1CF7"/>
<stop offset="1" stop-color="#00F0FF"/>
</linearGradient>
<linearGradient id="paint50_linear_76_668" x1="288.246" y1="857.763" x2="701.545" y2="1368.14" gradientUnits="userSpaceOnUse">
<stop stop-color="#FF1CF7"/>
<stop offset="1" stop-color="#00F0FF"/>
</linearGradient>
<linearGradient id="paint51_linear_76_668" x1="282.494" y1="852.081" x2="662.416" y2="1375" gradientUnits="userSpaceOnUse">
<stop stop-color="#FF1CF7"/>
<stop offset="1" stop-color="#00F0FF"/>
</linearGradient>
<linearGradient id="paint52_linear_76_668" x1="276.82" y1="847.398" x2="623.203" y2="1380.78" gradientUnits="userSpaceOnUse">
<stop stop-color="#FF1CF7"/>
<stop offset="1" stop-color="#00F0FF"/>
</linearGradient>
<linearGradient id="paint53_linear_76_668" x1="271.164" y1="843.704" x2="583.97" y2="1385.5" gradientUnits="userSpaceOnUse">
<stop stop-color="#FF1CF7"/>
<stop offset="1" stop-color="#00F0FF"/>
</linearGradient>
<linearGradient id="paint54_linear_76_668" x1="265.469" y1="840.988" x2="544.781" y2="1389.17" gradientUnits="userSpaceOnUse">
<stop stop-color="#FF1CF7"/>
<stop offset="1" stop-color="#00F0FF"/>
</linearGradient>
<linearGradient id="paint55_linear_76_668" x1="259.676" y1="839.233" x2="505.695" y2="1391.8" gradientUnits="userSpaceOnUse">
<stop stop-color="#FF1CF7"/>
<stop offset="1" stop-color="#00F0FF"/>
</linearGradient>
<linearGradient id="paint56_linear_76_668" x1="253.73" y1="838.421" x2="466.775" y2="1393.42" gradientUnits="userSpaceOnUse">
<stop stop-color="#FF1CF7"/>
<stop offset="1" stop-color="#00F0FF"/>
</linearGradient>
<linearGradient id="paint57_linear_76_668" x1="247.577" y1="838.53" x2="428.077" y2="1394.05" gradientUnits="userSpaceOnUse">
<stop stop-color="#FF1CF7"/>
<stop offset="1" stop-color="#00F0FF"/>
</linearGradient>
<linearGradient id="paint58_linear_76_668" x1="241.164" y1="839.534" x2="389.658" y2="1393.72" gradientUnits="userSpaceOnUse">
<stop stop-color="#FF1CF7"/>
<stop offset="1" stop-color="#00F0FF"/>
</linearGradient>
<linearGradient id="paint59_linear_76_668" x1="234.442" y1="841.406" x2="351.572" y2="1392.46" gradientUnits="userSpaceOnUse">
<stop stop-color="#FF1CF7"/>
<stop offset="1" stop-color="#00F0FF"/>
</linearGradient>
<linearGradient id="paint60_linear_76_668" x1="227.363" y1="844.114" x2="313.869" y2="1390.29" gradientUnits="userSpaceOnUse">
<stop stop-color="#FF1CF7"/>
<stop offset="1" stop-color="#00F0FF"/>
</linearGradient>
<linearGradient id="paint61_linear_76_668" x1="219.881" y1="847.626" x2="276.6" y2="1387.27" gradientUnits="userSpaceOnUse">
<stop stop-color="#FF1CF7"/>
<stop offset="1" stop-color="#00F0FF"/>
</linearGradient>
<linearGradient id="paint62_linear_76_668" x1="211.954" y1="851.905" x2="239.809" y2="1383.41" gradientUnits="userSpaceOnUse">
<stop stop-color="#FF1CF7"/>
<stop offset="1" stop-color="#00F0FF"/>
</linearGradient>
<linearGradient id="paint63_linear_76_668" x1="203.541" y1="856.914" x2="203.541" y2="1378.78" gradientUnits="userSpaceOnUse">
<stop stop-color="#FF1CF7"/>
<stop offset="1" stop-color="#00F0FF"/>
</linearGradient>
<linearGradient id="paint64_linear_76_668" x1="194.604" y1="862.612" x2="167.835" y2="1373.4" gradientUnits="userSpaceOnUse">
<stop stop-color="#FF1CF7"/>
<stop offset="1" stop-color="#00F0FF"/>
</linearGradient>
<linearGradient id="paint65_linear_76_668" x1="185.11" y1="868.958" x2="132.729" y2="1367.33" gradientUnits="userSpaceOnUse">
<stop stop-color="#FF1CF7"/>
<stop offset="1" stop-color="#00F0FF"/>
</linearGradient>
<linearGradient id="paint66_linear_76_668" x1="175.025" y1="875.907" x2="98.2571" y2="1360.6" gradientUnits="userSpaceOnUse">
<stop stop-color="#FF1CF7"/>
<stop offset="1" stop-color="#00F0FF"/>
</linearGradient>
<linearGradient id="paint67_linear_76_668" x1="164.323" y1="883.415" x2="64.4499" y2="1353.28" gradientUnits="userSpaceOnUse">
<stop stop-color="#FF1CF7"/>
<stop offset="1" stop-color="#00F0FF"/>
</linearGradient>
<linearGradient id="paint68_linear_76_668" x1="152.976" y1="891.434" x2="31.3344" y2="1345.41" gradientUnits="userSpaceOnUse">
<stop stop-color="#FF1CF7"/>
<stop offset="1" stop-color="#00F0FF"/>
</linearGradient>
</defs>
</svg>
