<svg width="18" height="18" viewBox="0 0 18 18" fill="none" xmlns="http://www.w3.org/2000/svg">
<path d="M5.12875 15.7085C5.0574 15.6672 4.9786 15.6403 4.89686 15.6294C4.81512 15.6186 4.73203 15.6239 4.65235 15.6451C4.57266 15.6663 4.49793 15.703 4.43244 15.7531C4.36694 15.8032 4.31195 15.8658 4.27061 15.9371C4.22927 16.0085 4.20239 16.0873 4.19151 16.169C4.18062 16.2507 4.18594 16.3338 4.20716 16.4135C4.22839 16.4932 4.2651 16.5679 4.3152 16.6334C4.3653 16.6989 4.42782 16.7539 4.49917 16.7952L5.12875 15.7085ZM1.20475 13.5C1.24437 13.5744 1.29856 13.64 1.36409 13.6931C1.42963 13.7461 1.50516 13.7853 1.5862 13.8085C1.66723 13.8317 1.7521 13.8384 1.83576 13.8281C1.91941 13.8177 2.00014 13.7907 2.07312 13.7485C2.1461 13.7064 2.20984 13.6499 2.26055 13.5826C2.31126 13.5153 2.34789 13.4384 2.36826 13.3566C2.38864 13.2748 2.39234 13.1898 2.37914 13.1065C2.36594 13.0233 2.33612 12.9436 2.29145 12.8721L1.20475 13.5ZM16.7442 8.99999C16.7442 11.0539 15.9283 13.0236 14.476 14.476C13.0237 15.9283 11.0539 16.7442 9 16.7442V18C13.9705 18 18 13.9705 18 8.99999H16.7442ZM1.25582 8.99999C1.25582 6.94611 2.07173 4.97635 3.52404 3.52403C4.97636 2.07172 6.94612 1.25581 9 1.25581V0C4.0295 0 9.4191e-06 4.02949 9.4191e-06 8.99999H1.25582ZM11.9302 10.8837C10.6535 10.8837 9.42905 10.3765 8.52626 9.47374C7.62347 8.57095 7.11628 7.3465 7.11628 6.06976H5.86047C5.86047 7.67957 6.49996 9.22343 7.63826 10.3617C8.77657 11.5 10.3204 12.1395 11.9302 12.1395V10.8837ZM16.0535 8.55544C15.6251 9.26593 15.0204 9.85366 14.2979 10.2616C13.5755 10.6695 12.7599 10.8838 11.9302 10.8837V12.1395C12.9762 12.1398 14.0046 11.8698 14.9155 11.3557C15.8264 10.8416 16.589 10.1008 17.1293 9.20511L16.0535 8.55544ZM7.11628 6.06976C7.11617 5.24011 7.33047 4.42451 7.73841 3.70208C8.14634 2.97964 8.73407 2.3749 9.44456 1.94651L8.79489 0.871534C7.89937 1.41177 7.15863 2.17424 6.64451 3.085C6.13038 3.99576 5.86031 5.02391 5.86047 6.06976H7.11628ZM9 1.25581C8.95793 1.255 8.91644 1.24586 8.87792 1.2289C8.83941 1.21194 8.80464 1.18751 8.77563 1.15702C8.74034 1.12157 8.71643 1.07638 8.70698 1.02726C8.70363 1.0013 8.70531 0.925953 8.79489 0.871534L9.44456 1.94651C9.86568 1.692 10.0013 1.22567 9.95191 0.858976C9.9 0.478046 9.60028 0 9 0V1.25581ZM17.1293 9.20511C17.074 9.29469 16.9987 9.29637 16.9727 9.29302C16.9236 9.28357 16.8784 9.25966 16.843 9.22437C16.8125 9.19536 16.7881 9.16059 16.7711 9.12208C16.7541 9.08356 16.745 9.04207 16.7442 8.99999H18C18 8.39972 17.522 8.1 17.141 8.04809C16.7743 7.99869 16.308 8.13432 16.0535 8.55544L17.1293 9.20511ZM9 16.7442C7.64081 16.7466 6.30519 16.3893 5.12875 15.7085L4.49917 16.7952C5.86692 17.5868 7.41973 18.0024 9 18V16.7442ZM2.29145 12.8721C1.61057 11.6954 1.25327 10.3595 1.25582 8.99999H9.4191e-06C-0.00228147 10.58 0.413354 12.1325 1.20475 13.5L2.29145 12.8721Z" fill="black"/>
</svg>
