<svg width="20" height="20" viewBox="0 0 20 20" fill="none" xmlns="http://www.w3.org/2000/svg">
<g clip-path="url(#clip0_169_722)">
<path d="M10 0V1M10 19V20M20 10H19M1 10H0M17.07 2.93L16.678 3.323M3.322 16.678L2.929 17.071M17.07 17.07L16.678 16.677M3.322 3.322L2.929 2.929M4.341 8C3.88777 9.28308 3.88415 10.6821 4.33073 11.9675C4.77732 13.2529 5.64758 14.3484 6.79871 15.074C7.94984 15.7997 9.31346 16.1125 10.6658 15.9612C12.0181 15.8098 13.2788 15.2033 14.2411 14.2411C15.2033 13.2788 15.8098 12.0181 15.9612 10.6658C16.1125 9.31346 15.7997 7.94984 15.074 6.79871C14.3484 5.64758 13.2529 4.77732 11.9675 4.33073C10.6821 3.88415 9.28308 3.88777 8 4.341" stroke="white" stroke-width="1.5" stroke-linecap="round"/>
</g>
<defs>
<clipPath id="clip0_169_722">
<rect width="20" height="20" fill="white"/>
</clipPath>
</defs>
</svg>
